<?xml version="1.0" encoding="iso-8859-1"?>
<!-- Generator: Adobe Illustrator 19.0.0, SVG Export Plug-In . SVG Version: 6.00 Build 0)  -->
<svg version="1.1" id="Capa_1" xmlns="http://www.w3.org/2000/svg" xmlns:xlink="http://www.w3.org/1999/xlink" x="0px" y="0px"
	 viewBox="0 0 480 480" style="enable-background:new 0 0 480 480;" xml:space="preserve">
<g>
	<g>
		<path d="M472,404h-84.472l9.84-24H416c13.232,0,24-10.768,24-24c0-6.488-2.536-12.52-6.992-16.864
			C428.52,334.536,422.488,332,416,332h-16v-0.672c16.272-1.32,31.328-13.192,37.192-30.48c3.72-10.968,3.392-22.616-0.912-32.808
			c-4.44-10.512-12.552-18.224-22.848-21.712c-1.824-0.616-3.68-1.072-5.608-1.376C405.752,203.512,385.488,172,360,172
			c-4.992,0-9.768,1.24-14.264,3.496c-11.872-7.992-25.584-12.048-40.384-11.368c-1.112-0.192-2.248-0.12-3.36,0.168
			c-0.056,0.008-0.112,0-0.168,0.008c-11.648-18.928-31.616-30.752-53.832-32.048V92h56c13.232,0,24-10.768,24-24V36
			c0-4.416-3.584-8-8-8h-64c-13.232,0-24,10.768-24,24v32v49.184c-18.936,3.376-35.6,14.496-45.832,31.12
			c-2.088-0.2-4.136-0.304-6.16-0.304c-37.496,0-68,30.504-68,68c0,0.296,0.136,0.552,0.168,0.84C79.512,244.36,56,275.448,56,312
			v21.472c-9.288,3.312-16,12.112-16,22.528c0,13.232,10.768,24,24,24h19.528l14.784,24H8c-4.416,0-8,3.584-8,8v16
			c0,13.232,10.888,24,24.28,24h431.44c13.392,0,24.28-10.768,24.28-24v-16C480,407.584,476.416,404,472,404z M248,52
			c0-4.408,3.592-8,8-8h56v24c0,4.408-3.592,8-8,8h-56V52z M360,188c15.136,0,32,26.288,31.984,64.568
			c0,2.2,0.904,4.304,2.504,5.816c1.592,1.512,3.768,2.304,5.944,2.176c2.968-0.168,5.536,0.136,7.864,0.928
			c5.904,2,10.608,6.544,13.248,12.792c2.776,6.568,2.952,14.184,0.496,21.432c-4.464,13.168-16.784,21.528-28.648,19.432
			c-2.336-0.416-4.72,0.232-6.528,1.752c-1.816,1.512-2.864,3.76-2.864,6.12V332h-16v-20l28.8-21.6
			c3.536-2.648,4.248-7.664,1.6-11.2c-2.64-3.52-7.656-4.256-11.2-1.6L368,292v-40c0-4.416-3.584-8-8-8c-4.416,0-8,3.584-8,8v80
			h-0.408c-2.4-28.848-17.592-54.072-39.896-70.04c2.672-0.832,5.24-1.328,7.56-1.104c2.216,0.2,4.464-0.976,6.128-2.488
			c1.68-1.52,2.616-4.112,2.616-6.368C328,214.288,344.864,188,360,188z M269.64,311.16c-0.656-0.312-1.304-0.624-1.984-0.888
			c-1.224-0.48-2.496-0.848-3.792-1.176c-0.616-0.16-1.216-0.36-1.848-0.48c-1.968-0.384-3.96-0.616-6.016-0.616
			c-2.056,0-4.048,0.232-6,0.608c-0.632,0.12-1.224,0.328-1.848,0.48c-1.296,0.328-2.56,0.696-3.792,1.176
			c-0.68,0.264-1.328,0.576-1.984,0.888c-1.104,0.528-2.176,1.096-3.208,1.744c-0.624,0.384-1.232,0.776-1.816,1.208
			c-1.016,0.728-1.96,1.528-2.872,2.376c-0.496,0.456-1.008,0.88-1.472,1.36c-1.04,1.08-1.968,2.24-2.848,3.456
			c-0.24,0.336-0.536,0.632-0.76,0.976c-1.064,1.584-1.976,3.272-2.744,5.04c-0.2,0.472-0.328,0.968-0.504,1.448
			c-0.4,1.064-0.84,2.12-1.128,3.232H208.72c0.024-0.168,0.048-0.336,0.08-0.504c0.44-2.456,1.072-4.848,1.88-7.16
			c0.136-0.4,0.288-0.792,0.432-1.176c0.872-2.304,1.888-4.536,3.08-6.664c0.16-0.28,0.344-0.552,0.504-0.832
			c1.296-2.192,2.728-4.304,4.344-6.256c0.032-0.032,0.064-0.064,0.088-0.104c1.624-1.952,3.432-3.744,5.344-5.416
			c0.2-0.176,0.392-0.368,0.6-0.544c1.864-1.576,3.872-2.984,5.96-4.264c0.344-0.208,0.688-0.432,1.04-0.632
			c2.08-1.208,4.264-2.256,6.536-3.136c0.392-0.152,0.792-0.296,1.192-0.44c2.328-0.84,4.72-1.528,7.192-2
			c0.312-0.064,0.64-0.088,0.96-0.144c2.616-0.432,5.296-0.72,8.048-0.72s5.432,0.288,8.056,0.728c0.32,0.056,0.64,0.088,0.96,0.144
			c2.472,0.472,4.872,1.16,7.192,2c0.4,0.144,0.8,0.28,1.192,0.44c2.264,0.888,4.448,1.936,6.536,3.136
			c0.352,0.2,0.696,0.416,1.04,0.632c2.088,1.28,4.096,2.688,5.96,4.264c0.208,0.176,0.392,0.368,0.6,0.544
			c1.912,1.672,3.712,3.464,5.344,5.416c0.032,0.032,0.064,0.064,0.088,0.104c1.616,1.952,3.048,4.064,4.344,6.256
			c0.168,0.28,0.344,0.552,0.504,0.832c1.2,2.12,2.216,4.352,3.08,6.664c0.144,0.392,0.296,0.784,0.432,1.176
			c0.8,2.312,1.432,4.704,1.88,7.16c0.032,0.168,0.048,0.336,0.08,0.504h-16.296c-0.288-1.12-0.728-2.168-1.128-3.232
			c-0.184-0.48-0.304-0.984-0.504-1.448c-0.768-1.768-1.68-3.456-2.744-5.04c-0.232-0.344-0.52-0.64-0.76-0.976
			c-0.88-1.208-1.816-2.376-2.848-3.456c-0.464-0.48-0.976-0.912-1.472-1.36c-0.92-0.84-1.864-1.64-2.872-2.376
			c-0.592-0.424-1.2-0.816-1.816-1.208C271.816,312.256,270.744,311.688,269.64,311.16z M269.76,331.992h-27.552
			c0.08-0.104,0.136-0.224,0.2-0.336c0.632-1.016,1.336-1.984,2.168-2.832c0.032-0.032,0.048-0.064,0.08-0.096
			c0.872-0.872,1.872-1.616,2.92-2.272c0.296-0.184,0.616-0.336,0.928-0.504c0.824-0.44,1.68-0.8,2.576-1.096
			c0.352-0.112,0.696-0.24,1.056-0.328c1.248-0.312,2.528-0.528,3.864-0.528s2.616,0.216,3.848,0.52
			c0.36,0.088,0.704,0.216,1.056,0.328c0.896,0.296,1.76,0.656,2.576,1.096c0.312,0.168,0.624,0.32,0.928,0.504
			c1.056,0.656,2.048,1.4,2.92,2.272c0.032,0.032,0.048,0.064,0.08,0.096c0.832,0.848,1.544,1.816,2.168,2.832
			C269.648,331.76,269.696,331.88,269.76,331.992z M301.848,295.44c-0.608-0.624-1.248-1.224-1.88-1.824
			c-0.8-0.76-1.608-1.504-2.44-2.224c-0.672-0.576-1.368-1.128-2.064-1.68c-0.856-0.672-1.728-1.336-2.624-1.968
			c-0.728-0.512-1.464-1.008-2.208-1.496c-0.928-0.6-1.864-1.168-2.824-1.72c-0.768-0.44-1.544-0.88-2.328-1.288
			c-0.992-0.52-2-0.992-3.024-1.456c-0.8-0.368-1.592-0.728-2.408-1.064c-1.072-0.432-2.16-0.816-3.256-1.192
			c-0.808-0.28-1.608-0.576-2.432-0.816c-1.168-0.352-2.36-0.632-3.552-0.912c-0.792-0.192-1.568-0.408-2.376-0.56
			c-1.336-0.264-2.696-0.44-4.064-0.624c-0.688-0.088-1.368-0.224-2.064-0.288c-2.08-0.216-4.176-0.328-6.304-0.328
			s-4.224,0.112-6.296,0.32c-0.696,0.072-1.376,0.2-2.064,0.288c-1.36,0.176-2.728,0.36-4.064,0.624
			c-0.8,0.16-1.584,0.376-2.376,0.56c-1.192,0.28-2.384,0.568-3.552,0.912c-0.824,0.248-1.624,0.544-2.432,0.816
			c-1.096,0.376-2.192,0.76-3.256,1.192c-0.816,0.336-1.608,0.696-2.408,1.064c-1.024,0.464-2.032,0.944-3.024,1.456
			c-0.792,0.408-1.56,0.848-2.328,1.288c-0.96,0.552-1.896,1.12-2.824,1.72c-0.752,0.48-1.48,0.984-2.208,1.496
			c-0.896,0.632-1.768,1.288-2.624,1.968c-0.696,0.552-1.392,1.104-2.064,1.68c-0.84,0.72-1.64,1.464-2.44,2.224
			c-0.632,0.6-1.272,1.2-1.88,1.824c-0.784,0.808-1.528,1.648-2.264,2.496c-0.56,0.64-1.136,1.272-1.672,1.936
			c-0.736,0.912-1.416,1.864-2.104,2.816c-0.472,0.656-0.968,1.288-1.416,1.96c-0.712,1.072-1.36,2.192-2.008,3.304
			c-0.352,0.6-0.728,1.176-1.064,1.792c-0.904,1.68-1.744,3.408-2.496,5.176c-0.032,0.072-0.072,0.136-0.096,0.208
			c-0.784,1.84-1.464,3.736-2.072,5.656c-0.192,0.616-0.328,1.256-0.504,1.88c-0.376,1.328-0.744,2.656-1.04,4.016
			c-0.16,0.768-0.264,1.552-0.4,2.32c-0.176,1-0.392,1.984-0.52,3H176.4c4.024-40.368,38.192-72,79.6-72s75.576,31.632,79.6,72
			h-16.096V332c-0.128-1.016-0.344-2-0.52-3c-0.136-0.776-0.24-1.56-0.4-2.32c-0.288-1.36-0.664-2.688-1.04-4.016
			c-0.176-0.624-0.312-1.264-0.504-1.88c-0.608-1.928-1.296-3.816-2.072-5.656c-0.032-0.072-0.072-0.136-0.096-0.208
			c-0.76-1.768-1.592-3.496-2.496-5.176c-0.328-0.608-0.712-1.192-1.064-1.792c-0.648-1.12-1.296-2.232-2.008-3.304
			c-0.448-0.672-0.936-1.312-1.416-1.96c-0.688-0.952-1.368-1.904-2.104-2.816c-0.536-0.664-1.104-1.296-1.672-1.936
			C303.368,297.088,302.632,296.248,301.848,295.44z M180,180c2.872,0,5.848,0.28,9.096,0.848c0.216,0.04,0.416-0.008,0.624,0.008
			C193.384,184.968,200,194.72,200,212c0,4.416,3.584,8,8,8s8-3.584,8-8c0-22.256-8.768-35.504-14.504-41.864
			C211.16,156.328,226.848,148,244,148c19.448,0,36.984,10.712,46.016,27.976C285.064,183.464,280,195.144,280,212
			c0,4.416,3.584,8,8,8c4.416,0,8-3.584,8-8c0-18.576,7.488-28.344,10.976-31.904C307.304,180.088,307.68,180,308,180
			c8.672,0,17,2.128,24.488,6.144c-11.424,13.136-19.144,34.328-20.328,59.112c-3.256,0.544-6.568,1.56-9.912,3.032
			c-2.36,1.04-3.84,3.112-4.416,5.44C285.168,247.56,271.008,244,256,244c-18.8,0-36.296,5.512-51.12,14.888
			C188.992,239.512,165.208,228,140,228c-4.032,0-7.968,0.384-11.848,0.936C129.752,201.688,152.36,180,180,180z M72,312
			c0-37.496,30.504-68,68-68c20.2,0,39.272,9.128,52.136,24.52c-4.016,3.592-7.752,7.472-11.112,11.68
			C171.288,267.6,156.336,260,140,260c-28.672,0-52,23.328-52,52v20H72V312z M171.456,294.592
			c-6.096,11.304-9.936,23.976-11.048,37.408H104v-20c0-19.848,16.152-36,36-36C153.184,276,165.088,283.12,171.456,294.592z
			 M88,364H64c-4.408,0-8-3.592-8-8c0-4.408,3.592-8,8-8h104h32h32h48h32h32h72c2.136,0,4.104,0.816,5.696,2.448
			c1.488,1.448,2.304,3.416,2.304,5.552c0,4.408-3.592,8-8,8h-24c-3.248,0-6.168,1.96-7.4,4.968L370.232,404h-253.12l-14.784-24H136
			c4.416,0,8-3.584,8-8c0-4.416-3.584-8-8-8H88z M464,428c0,4.408-3.712,8-8.28,8H24.28c-4.568,0-8.28-3.592-8.28-8v-8h96.64H375.6
			H464V428z"/>
	</g>
</g>
<g>
	<g>
		<path d="M184,364h-16c-4.416,0-8,3.584-8,8c0,4.416,3.584,8,8,8h16c4.416,0,8-3.584,8-8C192,367.584,188.416,364,184,364z"/>
	</g>
</g>
<g>
	<g>
		<path d="M128,292c-4.416,0-8,3.584-8,8v8c0,4.416,3.584,8,8,8s8-3.584,8-8v-8C136,295.584,132.416,292,128,292z"/>
	</g>
</g>
<g>
	<g>
		<path d="M152,300c-4.416,0-8,3.584-8,8v8c0,4.416,3.584,8,8,8s8-3.584,8-8v-8C160,303.584,156.416,300,152,300z"/>
	</g>
</g>
<g>
</g>
<g>
</g>
<g>
</g>
<g>
</g>
<g>
</g>
<g>
</g>
<g>
</g>
<g>
</g>
<g>
</g>
<g>
</g>
<g>
</g>
<g>
</g>
<g>
</g>
<g>
</g>
<g>
</g>
</svg>
